<?xml version="1.0" standalone="no"?>
<!DOCTYPE svg PUBLIC "-//W3C//DTD SVG 20010904//EN"
 "http://www.w3.org/TR/2001/REC-SVG-20010904/DTD/svg10.dtd">
<svg version="1.0" xmlns="http://www.w3.org/2000/svg"
 width="628.000000pt" height="397.000000pt" viewBox="0 0 628.000000 397.000000"
 preserveAspectRatio="xMidYMid meet">
<metadata>
Created by potrace 1.16, written by Peter Selinger 2001-2019
</metadata>
<g transform="translate(0.000000,397.000000) scale(0.100000,-0.100000)"
fill="#000000" stroke="none">
<path d="M1630 3194 c-698 -276 -934 -370 -1100 -434 -102 -40 -189 -77 -195
-81 -5 -5 185 -9 431 -9 l440 0 334 -382 c184 -210 351 -400 371 -422 46 -52
1045 -1189 1159 -1319 46 -53 89 -97 95 -96 5 0 87 88 180 196 94 108 211 241
260 298 50 56 117 132 150 170 33 38 65 73 70 79 6 6 138 157 295 336 156 179
299 341 316 360 17 19 179 203 358 408 l327 372 437 0 c272 0 432 4 427 9 -6
6 -120 53 -255 106 -258 102 -422 167 -815 322 -478 189 -437 175 -456 156 -9
-10 -101 -122 -205 -248 -104 -127 -391 -477 -639 -778 l-450 -548 -30 33
c-16 19 -57 67 -91 108 -33 41 -262 320 -508 620 -246 300 -500 609 -564 687
-65 78 -119 142 -122 142 -3 0 -102 -38 -220 -85z"/>
<path d="M4509 1838 c-30 -35 -170 -195 -312 -356 -176 -201 -255 -297 -250
-306 5 -8 132 -212 283 -455 l275 -441 508 0 509 0 -19 33 c-11 17 -223 382
-473 810 -249 427 -457 777 -460 777 -4 0 -31 -28 -61 -62z"/>
<path d="M1470 1379 c-161 -277 -353 -605 -425 -729 -201 -342 -225 -384 -225
-391 0 -8 889 -10 960 -3 l55 6 275 441 c151 243 276 447 278 454 2 7 -43 66
-100 131 -105 121 -413 471 -485 551 l-39 44 -294 -504z"/>
</g>
</svg>
