<?xml version="1.0" encoding="utf-8"?>
<!-- Generator: Adobe Illustrator 27.5.0, SVG Export Plug-In . SVG Version: 6.00 Build 0)  -->
<svg version="1.1" id="BASE" xmlns="http://www.w3.org/2000/svg" xmlns:xlink="http://www.w3.org/1999/xlink" x="0px" y="0px"
	 viewBox="0 0 2478 1817" style="enable-background:new 0 0 2478 1817;" xml:space="preserve">
<g>
	<polygon style="fill:#54C3E9;" points="326.292,873.738 182.488,873.738 165.154,899.986 308.957,899.986 	"/>
	<polygon style="fill:#54C3E9;" points="483.188,611.273 339.384,611.273 322.049,637.523 465.853,637.523 	"/>
	<polygon style="fill:#54C3E9;" points="1751.245,873.738 1607.441,873.738 1590.105,899.986 1733.909,899.986 	"/>
	<polygon style="fill:#54C3E9;" points="1908.14,611.273 1764.337,611.273 1747.002,637.523 1890.804,637.523 	"/>
	<rect x="1288.656" y="977.957" style="fill:#54C3E9;" width="32.151" height="27.854"/>
	<path style="fill:#54C3E9;" d="M802.739,1025.307l-89.441-0.239l0.052-19.256h29.72v-27.854h-29.646l0.773-287.935h63.264
		l17.336-26.249h-80.529l0.07-26.249h53.488l17.335-26.249h-70.753l0.14-52.241l-96.502-0.259l-0.048,0.073l-26.879-0.073
		l-0.058,0.089l-27.784-0.069l-34.672,52.491h27.836l-17.327,26.239l-0.003,0.006h-27.842l-17.336,26.246h27.844l-17.331,26.244
		h-27.849L320.577,926.263h-77.793l-17.335,26.25h77.792l-47.203,71.475l-0.023,7.272h-52.375l-17.335,26.248h69.628l-0.197,62.975
		l306.036,0.843l-0.195,67.428H449.732l-17.335,26.249h129.105l-0.151,52.238l93.936,0.235v0.025h117.319l17.335-26.249h-77.223
		l0.07-26.249h45.689l17.334-26.249H712.86l0.179-67.04l34.619,0.093l0.001-0.072l27.895,0.075v-0.073l26.926,0.073l0.031-11.803
		h25.726l17.336-26.249h-42.991l0.07-26.25h53.843l17.336-26.248h-71.107L802.739,1025.307z M562.015,1024.661l-118.94-0.319
		l48.684-71.829h0.001l17.791-26.25l52.918-78.077L562.015,1024.661z"/>
	<path style="fill:#54C3E9;" d="M2227.691,1025.307l-89.44-0.239l0.051-19.256h29.719v-27.854h-29.644l0.772-287.935h63.263
		l17.336-26.249h-80.528l0.07-26.249h53.489l17.334-26.249h-70.753l0.14-52.241l-96.503-0.259l-0.047,0.073l-26.879-0.073
		l-0.059,0.089l-27.784-0.069l-34.672,52.491h27.837l-3.814,5.774l-13.515,20.465l-0.003,0.006h-27.842l-17.336,26.246h27.844
		l-17.332,26.244h-27.85l-156.018,236.243h-77.793l-17.334,26.25h77.792l-47.203,71.475l-0.023,7.272h-52.375l-17.334,26.248h69.627
		l-0.196,62.975l306.035,0.843l-0.195,67.428h-111.846l-17.334,26.249h129.104l-0.151,52.238l93.936,0.235v0.025h117.319
		l17.335-26.249h-77.223l0.07-26.249h45.69l17.334-26.249h-62.953l0.181-67.04l34.618,0.093v-0.072l27.895,0.075v-0.073
		l26.926,0.073l0.031-11.803h25.726l17.335-26.249h-42.99l0.07-26.25h53.843l17.336-26.248h-71.107L2227.691,1025.307z
		 M1986.966,1024.661l-118.939-0.319l48.684-71.829l17.791-26.25l52.918-78.077L1986.966,1024.661z"/>
	<path style="fill:#54C3E9;" d="M1559.528,1057.507l17.334-26.248h-60.957l0.493-183.745h56.372l17.335-26.249h-73.637l0.121-44.9
		c0.089-30.417-5.887-59.687-16.792-86.344h27.215l17.335-26.249h-57.318c-5.22-9.174-11.059-17.941-17.458-26.249h68.615
		l17.334-26.249h-109.635c-8.907-8.448-18.501-16.18-28.695-23.109c-36.051-24.531-79.892-38.976-126.665-39.081
		c-4.641-0.013-9.255,0.117-13.838,0.382c-4.196-0.242-8.419-0.372-12.666-0.382c-5.97-0.017-11.896,0.2-17.767,0.641
		c-5.342-0.391-10.728-0.599-16.156-0.612c-31.159-0.09-61.118,6.18-88.295,17.597c-25.485,10.706-48.548,25.88-68.251,44.561
		h-64.501l-17.334,26.249h58.144c-2.759,3.58-5.416,7.244-7.962,10.991c-23.407,34.398-37.631,75.89-38.977,120.255h-49.768
		l-17.335,26.249h66.945l-0.21,78.721H885.521l-17.336,26.249h134.297l-0.07,26.277h-56.596l-17.334,26.25h73.86l-0.211,78.747
		h-68.66l-17.336,26.248h87.432c2.451,21.729,7.985,42.611,16.159,62.066c10.875,25.888,26.362,49.275,45.451,69.18h-31.455
		l-17.335,26.247h78.792c2.09,1.526,4.205,3.02,6.348,4.477c36.051,24.531,79.892,38.976,126.665,39.081v0.001
		c5.973,0.018,11.899-0.202,17.772-0.643c5.339,0.391,10.725,0.599,16.152,0.611v0.001c4.644,0.014,9.26-0.117,13.845-0.382
		c4.193,0.242,8.413,0.372,12.658,0.381v0.001c31.16,0.09,61.119-6.181,88.295-17.597c40.79-17.135,75.375-45.715,99.904-81.802
		c10.291-15.123,18.806-31.618,25.233-49.125h52.205l17.335-26.249h-61.674c2.013-8.58,3.537-17.342,4.544-26.25H1559.528z
		 M1355.661,1032.228c-0.055,17.654-3.642,34.204-10.081,49.337c-9.652,22.676-25.857,42.104-46.167,55.736
		c-12.184,8.164-25.739,14.257-40.333,17.822c-6.737-1.641-13.255-3.818-19.528-6.487c-22.676-9.651-42.102-25.856-55.736-46.167
		c-13.63-20.344-21.496-44.505-21.445-70.95l0.212-78.983h32.202l17.819-26.246h-49.95l0.404-150.873
		c0.055-17.654,3.641-34.204,10.082-49.337c5.665-13.312,13.592-25.502,23.279-36.06h45.386l17.332-26.244h-28.885
		c9.193-4.916,19.026-8.724,29.387-11.255c6.737,1.641,13.256,3.818,19.529,6.488c22.675,9.652,42.102,25.857,55.735,46.167
		c13.63,20.344,21.496,44.505,21.446,70.951L1355.661,1032.228z"/>
	<path style="fill:#E72685;" d="M802.723,1031.259l0.016-5.952l-89.441-0.239l0.052-19.256h29.72v-27.854h-29.646l0.773-287.935
		h63.264l17.336-26.249h-80.529l0.07-26.249h53.488l17.335-26.249h-70.753l0.14-52.241l-96.502-0.259l-0.048,0.073l-26.879-0.073
		l-0.058,0.089l-34.612,52.411h26.926l-17.335,26.249h-26.926l-0.003,0.006l-17.334,26.246h55.583l-17.331,26.244h-55.583
		L383.115,873.739h21.546l-17.336,26.246h-21.543l-17.355,26.278h-80.3l-17.335,26.25h80.3l-47.203,71.475l-0.02,7.272h-54.886
		l-17.335,26.248h72.15l-0.17,62.981l305.981,0.822l-0.038,14.142h27.498v27.852h-27.572l-0.068,25.448l-0.07,26.249l-0.14,52.236
		l66.068,0.178v0.084h117.319l17.335-26.249h-77.223l0.07-26.249h45.689l17.334-26.249H712.86l0.179-67.04v-0.072l34.62,0.093
		l27.895,0.075v-0.073l26.926,0.073l0.031-11.803h25.726l17.336-26.249h-42.991l0.07-26.25h53.843l17.336-26.248H802.723z
		 M617.775,1005.811h-27.854l-0.051,18.925l-27.855-0.075l-118.94-0.319l48.684-71.829h0.001l17.791-26.25l52.918-78.077
		l27.987-41.294l-0.459,171.065h27.78V1005.811z"/>
	<path style="fill:#E72685;" d="M2227.675,1031.259l0.016-5.952l-89.44-0.239l0.051-19.256h29.719v-27.854h-29.644l0.772-287.935
		h63.263l17.336-26.249h-80.528l0.07-26.249h53.489l17.334-26.249h-70.753l0.14-52.241l-96.503-0.259l-0.047,0.073l-26.879-0.073
		l-0.059,0.089l-34.619,52.422l0.007-0.01h26.926l-3.821,5.784l-13.515,20.465h-26.926l-0.003,0.006l-17.334,26.246h55.582
		l-17.331,26.244h-55.582l-121.33,183.718h21.547l-17.337,26.246h-21.542l-17.354,26.278h-80.301l-17.334,26.25h80.3l-47.203,71.475
		l-0.02,7.272h-54.885l-17.336,26.248h72.152l-0.171,62.981l305.981,0.822l-0.038,14.142h27.498v27.852h-27.572l-0.068,25.448
		l-0.071,26.249l-0.139,52.236l66.068,0.178v0.084h117.319l17.335-26.249h-77.223l0.07-26.249h45.69l17.334-26.249h-62.953
		l0.181-67.04v-0.072l34.618,0.093l27.895,0.075v-0.073l26.926,0.073l0.031-11.803h25.726l17.335-26.249h-42.99l0.07-26.25h53.843
		l17.336-26.248H2227.675z M2042.728,1005.811h-27.855l-0.051,18.925l-27.855-0.075l-118.939-0.319l48.684-71.829l17.791-26.25
		l52.918-78.077l27.987-41.294l-0.459,171.065h27.78V1005.811z"/>
	<path style="fill:#E72685;" d="M1572.77,847.515l17.335-26.249h-73.637l0.121-44.9c0.089-30.417-5.887-59.687-16.792-86.344h27.215
		l17.335-26.249h-57.318c-5.22-9.174-11.059-17.941-17.458-26.249h68.615l17.334-26.249h-109.635
		c-8.907-8.448-18.501-16.18-28.695-23.109c-36.051-24.531-79.892-38.976-126.665-39.081c-4.641-0.013-9.255,0.117-13.838,0.382
		c-4.196-0.242-8.419-0.372-12.666-0.382c-5.97-0.017-11.896,0.2-17.767,0.641c-24.769,1.862-48.558,7.725-70.527,16.955
		c-25.499,10.712-48.574,25.897-68.283,44.591h36.232c-8.554,8.114-16.473,16.891-23.682,26.249h-36.232
		c-2.751,3.571-5.399,7.225-7.939,10.961c-23.413,34.406-37.637,75.908-38.977,120.285h-83.693l-17.335,26.249h100.87
		l-0.352,131.246H971.16l-17.336,26.25h82.441l-0.212,78.737v0.009h-77.24l-17.335,26.248h96.016
		c2.454,21.717,7.987,42.59,16.156,62.036c10.88,25.9,26.377,49.299,45.479,69.211h64.885c9.206,9.595,19.25,18.382,30.018,26.247
		h-64.888c2.076,1.517,4.178,3,6.307,4.448c31.869,21.686,69.825,35.486,110.514,38.469c5.339,0.391,10.725,0.599,16.152,0.611
		v0.001c4.644,0.014,9.26-0.117,13.845-0.382c4.193,0.242,8.413,0.372,12.658,0.381v0.001c31.16,0.09,61.119-6.181,88.295-17.597
		c40.79-17.135,75.375-45.715,99.904-81.802c10.291-15.123,18.806-31.618,25.233-49.125h52.205l17.335-26.249h-61.674
		c2.013-8.58,3.537-17.342,4.544-26.25h45.066l17.334-26.248h-60.957l0.493-183.745H1572.77z M1275.948,1158.032
		c-5.761-0.596-11.387-1.575-16.868-2.909c-6.737-1.641-13.255-3.818-19.528-6.487c-22.676-9.651-42.102-25.856-55.736-46.167
		c-13.63-20.344-21.496-44.505-21.445-70.95l0.212-78.983h32.202l17.819-26.246h-49.95l0.404-150.873
		c0.055-17.654,3.641-34.204,10.082-49.337c5.665-13.312,13.592-25.502,23.279-36.06h45.386l17.332-26.244h-28.885
		c9.193-4.916,19.026-8.724,29.387-11.255c5.541-1.354,11.234-2.34,17.057-2.94c12.844,1.328,25.021,4.558,36.397,9.398
		c22.675,9.652,42.102,25.857,55.735,46.166c12.22,18.239,19.802,39.549,21.206,62.82h-27.083v27.853h27.272l-0.634,236.379
		c-0.055,17.654-3.642,34.205-10.082,49.337c-9.651,22.676-25.856,42.104-46.166,55.736
		C1316.526,1148.534,1297.107,1155.856,1275.948,1158.032z"/>
	<path d="M775.797,1031.259l0.016-5.952l-89.44-0.239l0.615-229.249h-27.073v-27.853h27.147l0.35-130.442h52.158l17.334-26.249
		h-69.422l0.14-52.241l-69.624-0.186l-26.879-0.073l-0.058,0.089l-34.612,52.411h26.926l-17.335,26.249h-26.926l-0.003,0.006
		l-17.334,26.246h55.583l-17.331,26.244h-55.583L383.115,873.739h21.546l-17.336,26.246h-21.543l-17.355,26.278h-80.3l-17.335,26.25
		h80.3l-47.203,71.475l-0.02,7.272h-54.886l-17.335,26.248h72.15l-0.17,62.981l305.981,0.822l-0.038,14.142h27.498v27.852h-27.572
		l-0.068,25.448l-0.07,26.249l-0.14,52.236l66.068,0.178v0.084h89.061l17.335-26.249h-75.892l0.07-26.249h44.358l17.335-26.249
		h-61.622l0.18-67.113v-0.072l26.926,0.072l34.62,0.093l27.895,0.075v-0.073l0.032-11.73h24.394l2.542-3.85l14.793-22.4h-41.659
		l0.069-26.25h52.512l17.336-26.248H775.797z M589.921,1005.811l-0.051,18.925v0.073l-27.855-0.075l-145.866-0.392l48.683-71.829
		h-60.307l15.572-23.581l1.762-2.668h60.764l79.947-117.956l27.992-41.3l-0.107,39.886l-0.459,171.065h27.78v27.854H589.921z"/>
	<path d="M2200.749,1031.259l0.016-5.952l-89.44-0.239l0.616-229.249h-27.073v-27.853h27.147l0.35-130.442h52.157l17.334-26.249
		h-69.42l0.139-52.241l-69.624-0.186l-26.879-0.073l-0.059,0.089l-34.619,52.422l0.007-0.01h26.926l-3.821,5.784l-13.515,20.465
		h-26.926l-0.003,0.006l-17.334,26.246h55.582l-17.331,26.244h-55.582l-121.33,183.718h21.547l-17.337,26.246h-21.542
		l-17.354,26.278h-80.301l-17.334,26.25h80.3l-47.203,71.475l-0.02,7.272h-54.885l-17.336,26.248h72.152l-0.171,62.981
		l305.981,0.822l-0.038,14.142h27.498v27.852h-27.572l-0.068,25.448l-0.071,26.249l-0.139,52.236l66.068,0.178v0.084h89.061
		l17.336-26.249h-75.893l0.071-26.249h44.358l17.334-26.249h-61.621l0.179-67.113v-0.072l26.928,0.072l34.618,0.093l27.895,0.075
		v-0.073l0.031-11.73h24.394l2.544-3.85l14.792-22.4h-41.659l0.07-26.25h52.511l17.335-26.248H2200.749z M2014.872,1005.811
		l-0.051,18.925v0.073l-27.855-0.075l-145.866-0.392l48.684-71.829h-60.309l15.573-23.581l1.762-2.668h60.764l79.947-117.956
		l27.991-41.3l-0.107,39.886l-0.459,171.065h27.78v27.854H2014.872z"/>
	<path d="M1487.958,1057.507h43.312l17.335-26.248h-59.203l0.493-183.745h-16.021l0.07-26.249h16.021l0.121-44.9
		c0.089-30.417-5.887-59.687-16.792-86.344h-17.524c-3.898-9.077-8.364-17.84-13.355-26.249h18.11
		c-5.22-9.174-11.059-17.941-17.457-26.249h66.861l17.335-26.249h-106.396v1.422c-9.323-9.003-19.418-17.214-30.181-24.531
		c-32.776-22.303-71.994-36.268-113.999-38.699c-4.196-0.242-8.419-0.372-12.666-0.382c-5.97-0.017-11.896,0.2-17.767,0.641
		c-24.769,1.862-48.558,7.725-70.527,16.955c-25.499,10.712-48.574,25.897-68.283,44.591h36.232
		c-8.554,8.114-16.473,16.891-23.682,26.249h-36.232c-2.751,3.571-5.399,7.225-7.939,10.961
		c-23.413,34.406-37.637,75.908-38.977,120.285h-83.693l-17.335,26.249h100.87l-0.352,131.246H971.16l-17.336,26.25h82.441
		l-0.212,78.737v0.009h-77.24l-17.335,26.248h96.016c2.454,21.717,7.987,42.59,16.156,62.036
		c10.88,25.9,26.377,49.299,45.479,69.211h64.885c9.206,9.595,19.25,18.382,30.018,26.247h-64.888c2.076,1.517,4.178,3,6.307,4.448
		c31.869,21.686,69.825,35.486,110.514,38.469c5.339,0.391,10.725,0.599,16.152,0.611v0.001c4.644,0.014,9.26-0.117,13.845-0.382
		c26.181-1.514,51.322-7.5,74.449-17.215c40.79-17.135,75.375-45.715,99.904-81.802c10.291-15.123,18.806-31.618,25.233-49.125H1526
		l17.334-26.249h-59.92C1485.427,1075.177,1486.952,1066.415,1487.958,1057.507z M1213.048,1148.636
		c-22.675-9.651-42.102-25.856-55.735-46.167c-13.63-20.344-21.496-44.505-21.446-70.95l0.212-78.983h-9.976l0.06-26.246h9.988
		l0.404-150.873c0.054-17.654,3.641-34.204,10.081-49.337c9.651-22.676,25.857-42.103,46.167-55.737
		c3.441-2.305,6.993-4.441,10.645-6.406l0.105-0.161h0.193c13.024-6.964,27.336-11.703,42.601-13.743
		c5.677-0.759,11.484-1.148,17.407-1.137c4.383,0.013,8.698,0.245,12.941,0.685c12.844,1.328,25.021,4.558,36.397,9.398
		c22.675,9.652,42.102,25.857,55.735,46.166c12.22,18.239,19.802,39.549,21.206,62.82h-27.083v27.853h27.272l-0.634,236.379
		c-0.055,17.654-3.642,34.205-10.082,49.337c-9.651,22.676-25.856,42.104-46.166,55.736c-16.811,11.263-36.23,18.585-57.389,20.762
		c-4.447,0.458-8.969,0.693-13.562,0.685h-0.001c-5.621-0.018-11.13-0.395-16.518-1.107
		C1234.337,1156.086,1223.362,1153.024,1213.048,1148.636z M1413.952,1005.811v-27.854h32.151v27.854H1413.952z"/>
	<polygon style="fill:#E72685;" points="725.934,847.515 869.738,847.515 887.072,821.266 743.269,821.266 	"/>
	<polygon style="fill:#E72685;" points="2150.885,847.515 2294.69,847.515 2312.024,821.266 2168.221,821.266 	"/>
	<polygon points="393.924,768.768 250.12,768.768 232.786,795.017 376.589,795.017 	"/>
	<polygon points="1818.877,768.768 1675.073,768.768 1657.738,795.017 1801.542,795.017 	"/>
</g>
</svg>
